<mxfile host="app.diagrams.net" modified="2024-05-29T08:13:13.793Z" agent="Mozilla/5.0 (Windows NT 10.0; Win64; x64; rv:126.0) Gecko/20100101 Firefox/126.0" etag="ZJUALWTG7tZ9obUIZVza" version="24.4.9" type="github">
  <diagram name="Page-1" id="2c0d36ab-eaac-3732-788b-9136903baeff">
    <mxGraphModel dx="1050" dy="557" grid="1" gridSize="10" guides="1" tooltips="1" connect="1" arrows="1" fold="1" page="1" pageScale="1.5" pageWidth="1169" pageHeight="827" background="none" math="0" shadow="0">
      <root>
        <mxCell id="0" />
        <mxCell id="1" parent="0" />
        <mxCell id="yiBTs8iIJsu4Ljcrw2EA-141" style="edgeStyle=orthogonalEdgeStyle;rounded=0;orthogonalLoop=1;jettySize=auto;html=1;entryX=0;entryY=0.5;entryDx=0;entryDy=0;" parent="1" source="yiBTs8iIJsu4Ljcrw2EA-124" target="yiBTs8iIJsu4Ljcrw2EA-125" edge="1">
          <mxGeometry relative="1" as="geometry" />
        </mxCell>
        <mxCell id="LJRXbvw2uVqpsPB7Yhcm-5" style="edgeStyle=orthogonalEdgeStyle;rounded=0;orthogonalLoop=1;jettySize=auto;html=1;entryX=0;entryY=0.5;entryDx=0;entryDy=0;" parent="1" source="yiBTs8iIJsu4Ljcrw2EA-124" target="LJRXbvw2uVqpsPB7Yhcm-4" edge="1">
          <mxGeometry relative="1" as="geometry" />
        </mxCell>
        <mxCell id="gLEcoqDyo47q4XNHYdvh-1" style="edgeStyle=orthogonalEdgeStyle;rounded=0;orthogonalLoop=1;jettySize=auto;html=1;entryX=1;entryY=0.5;entryDx=0;entryDy=0;" parent="1" target="yiBTs8iIJsu4Ljcrw2EA-126" edge="1">
          <mxGeometry relative="1" as="geometry">
            <mxPoint x="420" y="355" as="sourcePoint" />
          </mxGeometry>
        </mxCell>
        <mxCell id="gLEcoqDyo47q4XNHYdvh-6" style="rounded=0;orthogonalLoop=1;jettySize=auto;html=1;entryX=0;entryY=0.5;entryDx=0;entryDy=0;" parent="1" source="yiBTs8iIJsu4Ljcrw2EA-124" target="gLEcoqDyo47q4XNHYdvh-5" edge="1">
          <mxGeometry relative="1" as="geometry" />
        </mxCell>
        <mxCell id="yiBTs8iIJsu4Ljcrw2EA-124" value="Data Structure" style="ellipse;whiteSpace=wrap;html=1;fontStyle=1;fontSize=14;" parent="1" vertex="1">
          <mxGeometry x="360" y="240" width="120" height="80" as="geometry" />
        </mxCell>
        <mxCell id="yiBTs8iIJsu4Ljcrw2EA-131" style="edgeStyle=orthogonalEdgeStyle;rounded=0;orthogonalLoop=1;jettySize=auto;html=1;dashed=1;fillColor=#1ba1e2;strokeColor=#006EAF;exitX=1;exitY=0.5;exitDx=0;exitDy=0;" parent="1" source="yiBTs8iIJsu4Ljcrw2EA-125" target="LJRXbvw2uVqpsPB7Yhcm-3" edge="1">
          <mxGeometry relative="1" as="geometry">
            <mxPoint x="580" y="425" as="sourcePoint" />
            <mxPoint x="560" y="490" as="targetPoint" />
            <Array as="points">
              <mxPoint x="600" y="400" />
              <mxPoint x="600" y="510" />
              <mxPoint x="890" y="510" />
            </Array>
          </mxGeometry>
        </mxCell>
        <mxCell id="yiBTs8iIJsu4Ljcrw2EA-136" style="edgeStyle=orthogonalEdgeStyle;rounded=0;orthogonalLoop=1;jettySize=auto;html=1;entryX=0;entryY=0.5;entryDx=0;entryDy=0;dashed=1;fillColor=#1ba1e2;strokeColor=#006EAF;" parent="1" source="yiBTs8iIJsu4Ljcrw2EA-125" target="LJRXbvw2uVqpsPB7Yhcm-1" edge="1">
          <mxGeometry relative="1" as="geometry">
            <mxPoint x="600" y="410" as="sourcePoint" />
            <mxPoint x="580" y="525" as="targetPoint" />
            <Array as="points">
              <mxPoint x="600" y="400" />
              <mxPoint x="600" y="425" />
            </Array>
          </mxGeometry>
        </mxCell>
        <mxCell id="yiBTs8iIJsu4Ljcrw2EA-125" value="Basic DS" style="rounded=1;whiteSpace=wrap;html=1;fontStyle=1;fillColor=#fa6800;fontColor=#000000;strokeColor=#C73500;" parent="1" vertex="1">
          <mxGeometry x="440" y="380" width="120" height="40" as="geometry" />
        </mxCell>
        <mxCell id="yiBTs8iIJsu4Ljcrw2EA-143" style="edgeStyle=orthogonalEdgeStyle;rounded=0;orthogonalLoop=1;jettySize=auto;html=1;fontFamily=Helvetica;fontSize=12;fontColor=#000000;fontStyle=1;dashed=1;fillColor=#1ba1e2;strokeColor=#006EAF;entryX=1;entryY=0.5;entryDx=0;entryDy=0;" parent="1" source="yiBTs8iIJsu4Ljcrw2EA-126" target="yiBTs8iIJsu4Ljcrw2EA-144" edge="1">
          <mxGeometry relative="1" as="geometry">
            <mxPoint x="170" y="340" as="targetPoint" />
          </mxGeometry>
        </mxCell>
        <mxCell id="yiBTs8iIJsu4Ljcrw2EA-126" value="Fundamentals" style="rounded=1;whiteSpace=wrap;html=1;fontStyle=1;fillColor=#fa6800;fontColor=#000000;strokeColor=#C73500;" parent="1" vertex="1">
          <mxGeometry x="260" y="335" width="120" height="40" as="geometry" />
        </mxCell>
        <mxCell id="yiBTs8iIJsu4Ljcrw2EA-147" value="" style="group" parent="1" vertex="1" connectable="0">
          <mxGeometry x="90" y="320" width="120" height="70" as="geometry" />
        </mxCell>
        <mxCell id="yiBTs8iIJsu4Ljcrw2EA-142" value="Why&amp;nbsp; DS ?" style="whiteSpace=wrap;html=1;rounded=1;fontStyle=1;" parent="yiBTs8iIJsu4Ljcrw2EA-147" vertex="1">
          <mxGeometry y="40" width="120" height="30" as="geometry" />
        </mxCell>
        <mxCell id="yiBTs8iIJsu4Ljcrw2EA-144" value="What is DS ?" style="whiteSpace=wrap;html=1;rounded=1;fontStyle=1;" parent="yiBTs8iIJsu4Ljcrw2EA-147" vertex="1">
          <mxGeometry width="120" height="30" as="geometry" />
        </mxCell>
        <mxCell id="LJRXbvw2uVqpsPB7Yhcm-3" value="" style="fillColor=#f8cecc;strokeColor=#b85450;opacity=30;" parent="1" vertex="1">
          <mxGeometry x="820" y="360" width="140" height="130" as="geometry" />
        </mxCell>
        <mxCell id="yiBTs8iIJsu4Ljcrw2EA-127" value="2 Linked List" style="whiteSpace=wrap;html=1;rounded=1;fontStyle=1;" parent="1" vertex="1">
          <mxGeometry x="830" y="370" width="120" height="30" as="geometry" />
        </mxCell>
        <mxCell id="UguPg_bLSeKZf6hvQFoW-1" value="Priority Queue" style="whiteSpace=wrap;html=1;rounded=1;fontStyle=1;" parent="1" vertex="1">
          <mxGeometry x="830" y="450" width="120" height="30" as="geometry" />
        </mxCell>
        <mxCell id="UguPg_bLSeKZf6hvQFoW-2" value="Heap" style="whiteSpace=wrap;html=1;rounded=1;fontStyle=1;" parent="1" vertex="1">
          <mxGeometry x="830" y="410" width="120" height="30" as="geometry" />
        </mxCell>
        <mxCell id="LJRXbvw2uVqpsPB7Yhcm-2" value="" style="group" parent="1" vertex="1" connectable="0">
          <mxGeometry x="630" y="360" width="180" height="130" as="geometry" />
        </mxCell>
        <mxCell id="LJRXbvw2uVqpsPB7Yhcm-1" value="" style="fillColor=#10739E;strokeColor=none;opacity=30;" parent="LJRXbvw2uVqpsPB7Yhcm-2" vertex="1">
          <mxGeometry width="180" height="130" as="geometry" />
        </mxCell>
        <mxCell id="yiBTs8iIJsu4Ljcrw2EA-130" value="Linked List" style="whiteSpace=wrap;html=1;rounded=1;fontStyle=1;" parent="LJRXbvw2uVqpsPB7Yhcm-2" vertex="1">
          <mxGeometry x="10" y="50" width="120" height="30" as="geometry" />
        </mxCell>
        <mxCell id="yiBTs8iIJsu4Ljcrw2EA-132" value="Stack" style="whiteSpace=wrap;html=1;rounded=1;fontStyle=1;" parent="LJRXbvw2uVqpsPB7Yhcm-2" vertex="1">
          <mxGeometry x="10" y="10" width="120" height="30" as="geometry" />
        </mxCell>
        <mxCell id="yiBTs8iIJsu4Ljcrw2EA-134" value="Hash Table" style="whiteSpace=wrap;html=1;rounded=1;fontStyle=1;direction=south;horizontal=0;" parent="LJRXbvw2uVqpsPB7Yhcm-2" vertex="1">
          <mxGeometry x="140" y="10" width="30" height="110" as="geometry" />
        </mxCell>
        <mxCell id="yiBTs8iIJsu4Ljcrw2EA-135" value="Queues" style="whiteSpace=wrap;html=1;rounded=1;fontStyle=1;" parent="LJRXbvw2uVqpsPB7Yhcm-2" vertex="1">
          <mxGeometry x="10" y="90" width="120" height="30" as="geometry" />
        </mxCell>
        <mxCell id="LJRXbvw2uVqpsPB7Yhcm-4" value="Advance DS" style="rounded=1;whiteSpace=wrap;html=1;fontStyle=1;fillColor=#fa6800;fontColor=#000000;strokeColor=#C73500;" parent="1" vertex="1">
          <mxGeometry x="440" y="550" width="120" height="40" as="geometry" />
        </mxCell>
        <mxCell id="gLEcoqDyo47q4XNHYdvh-4" style="edgeStyle=orthogonalEdgeStyle;rounded=0;orthogonalLoop=1;jettySize=auto;html=1;fontFamily=Helvetica;fontSize=12;fontColor=#000000;fontStyle=1;dashed=1;fillColor=#1ba1e2;strokeColor=#006EAF;entryX=1;entryY=0.5;entryDx=0;entryDy=0;exitX=0;exitY=0.5;exitDx=0;exitDy=0;" parent="1" source="yiBTs8iIJsu4Ljcrw2EA-126" target="yiBTs8iIJsu4Ljcrw2EA-142" edge="1">
          <mxGeometry relative="1" as="geometry">
            <mxPoint x="220" y="365" as="sourcePoint" />
            <mxPoint x="170" y="345" as="targetPoint" />
          </mxGeometry>
        </mxCell>
        <mxCell id="gLEcoqDyo47q4XNHYdvh-5" value="Built-in DS in JS" style="rounded=1;whiteSpace=wrap;html=1;fontStyle=1;fillColor=#6d8764;strokeColor=#3A5431;fontColor=#ffffff;" parent="1" vertex="1">
          <mxGeometry x="630" y="260" width="120" height="40" as="geometry" />
        </mxCell>
        <mxCell id="gLEcoqDyo47q4XNHYdvh-13" value="Array" style="whiteSpace=wrap;html=1;rounded=1;fontStyle=0;" parent="1" vertex="1">
          <mxGeometry x="580" y="180" width="110" height="20" as="geometry" />
        </mxCell>
        <mxCell id="gLEcoqDyo47q4XNHYdvh-14" value="String" style="whiteSpace=wrap;html=1;rounded=1;fontStyle=0;" parent="1" vertex="1">
          <mxGeometry x="580" y="210" width="110" height="20" as="geometry" />
        </mxCell>
        <mxCell id="gLEcoqDyo47q4XNHYdvh-15" value="Object" style="whiteSpace=wrap;html=1;rounded=1;fontStyle=0;" parent="1" vertex="1">
          <mxGeometry x="700" y="180" width="110" height="20" as="geometry" />
        </mxCell>
        <mxCell id="gLEcoqDyo47q4XNHYdvh-16" value="Sets" style="whiteSpace=wrap;html=1;rounded=1;fontStyle=0;" parent="1" vertex="1">
          <mxGeometry x="700" y="210" width="110" height="20" as="geometry" />
        </mxCell>
        <mxCell id="gLEcoqDyo47q4XNHYdvh-19" style="rounded=0;orthogonalLoop=1;jettySize=auto;html=1;dashed=1;fillColor=#1ba1e2;strokeColor=#006EAF;exitX=0.5;exitY=0;exitDx=0;exitDy=0;edgeStyle=orthogonalEdgeStyle;entryX=0.468;entryY=1.036;entryDx=0;entryDy=0;entryPerimeter=0;" parent="1" source="gLEcoqDyo47q4XNHYdvh-5" target="gLEcoqDyo47q4XNHYdvh-14" edge="1">
          <mxGeometry relative="1" as="geometry">
            <mxPoint x="760" y="250" as="sourcePoint" />
            <mxPoint x="610" y="250" as="targetPoint" />
            <Array as="points">
              <mxPoint x="690" y="250" />
              <mxPoint x="632" y="250" />
            </Array>
          </mxGeometry>
        </mxCell>
        <mxCell id="gLEcoqDyo47q4XNHYdvh-20" style="edgeStyle=orthogonalEdgeStyle;rounded=0;orthogonalLoop=1;jettySize=auto;html=1;entryX=0.5;entryY=1;entryDx=0;entryDy=0;dashed=1;fillColor=#1ba1e2;strokeColor=#006EAF;exitX=0.5;exitY=0;exitDx=0;exitDy=0;" parent="1" source="gLEcoqDyo47q4XNHYdvh-5" target="gLEcoqDyo47q4XNHYdvh-16" edge="1">
          <mxGeometry relative="1" as="geometry">
            <mxPoint x="700" y="270" as="sourcePoint" />
            <mxPoint x="695" y="250" as="targetPoint" />
            <Array as="points">
              <mxPoint x="690" y="250" />
              <mxPoint x="755" y="250" />
            </Array>
          </mxGeometry>
        </mxCell>
        <mxCell id="YICFgGTVRvDlNN2FNXk2-3" value="" style="group" vertex="1" connectable="0" parent="1">
          <mxGeometry x="1000" y="430" width="120" height="60" as="geometry" />
        </mxCell>
        <mxCell id="YICFgGTVRvDlNN2FNXk2-1" value="Circular" style="rounded=0;whiteSpace=wrap;html=1;" vertex="1" parent="YICFgGTVRvDlNN2FNXk2-3">
          <mxGeometry y="30" width="120" height="30" as="geometry" />
        </mxCell>
        <mxCell id="YICFgGTVRvDlNN2FNXk2-2" value="Linear" style="rounded=0;whiteSpace=wrap;html=1;" vertex="1" parent="YICFgGTVRvDlNN2FNXk2-3">
          <mxGeometry width="120" height="30" as="geometry" />
        </mxCell>
        <mxCell id="YICFgGTVRvDlNN2FNXk2-4" style="edgeStyle=orthogonalEdgeStyle;rounded=0;orthogonalLoop=1;jettySize=auto;html=1;entryX=0.5;entryY=1;entryDx=0;entryDy=0;fillColor=#a20025;strokeColor=#6F0000;dashed=1;dashPattern=8 8;endArrow=classic;endFill=1;startArrow=oval;startFill=1;" edge="1" parent="1" source="yiBTs8iIJsu4Ljcrw2EA-135" target="YICFgGTVRvDlNN2FNXk2-1">
          <mxGeometry relative="1" as="geometry">
            <Array as="points">
              <mxPoint x="700" y="530" />
              <mxPoint x="1060" y="530" />
            </Array>
          </mxGeometry>
        </mxCell>
      </root>
    </mxGraphModel>
  </diagram>
</mxfile>
